<?xml version="1.0" encoding="iso-8859-1"?>
<!-- Generator: Adobe Illustrator 19.0.0, SVG Export Plug-In . SVG Version: 6.00 Build 0)  -->
<svg version="1.1" id="Layer_1" xmlns="http://www.w3.org/2000/svg" xmlns:xlink="http://www.w3.org/1999/xlink" x="0px" y="0px"
	 viewBox="0 0 496.232 496.232" style="enable-background:new 0 0 496.232 496.232;" xml:space="preserve">
<g>
	<path style="fill:#FFA64D;" d="M49.5,333.456l-2.744-7.072c-9.704-25.04-14.64-51.368-14.64-78.264s4.928-53.216,14.64-78.264
		l2.744-7.072l99.52,32.608l-3.528,8.072c-6.216,14.216-9.376,29.232-9.376,44.656s3.16,30.448,9.376,44.656l3.528,8.072
		L49.5,333.456z"/>
	<path style="fill:#FFA64D;" d="M273.516,462.792l-21.512-102.496l8.752-0.976c15.416-1.72,30.008-6.496,43.368-14.208
		c13.368-7.72,24.808-17.968,33.984-30.448l5.224-7.096l78,69.88l-4.752,5.912c-16.824,20.92-37.16,38.352-60.464,51.816
		c-23.296,13.448-48.568,22.344-75.104,26.456L273.516,462.792z"/>
	<path style="fill:#FFA64D;" d="M343.332,188.672l-5.224-7.096c-9.192-12.496-20.632-22.736-33.992-30.448
		c-13.344-7.712-27.936-12.496-43.368-14.208l-8.752-0.976l21.512-102.496l7.504,1.16c26.552,4.112,51.824,13.008,75.104,26.456
		c23.288,13.448,43.632,30.872,60.464,51.816l4.752,5.912L343.332,188.672z"/>
</g>
<g>
	<path style="fill:#333333;" d="M248.124,184.12c-35.288,0-64,28.712-64,64s28.712,64,64,64s64-28.712,64-64
		S283.412,184.12,248.124,184.12z M248.124,296.12c-26.472,0-48-21.528-48-48s21.528-48,48-48s48,21.528,48,48
		S274.596,296.12,248.124,296.12z"/>
	<path style="fill:#333333;" d="M462.94,124.472l0.2-0.176l-3.472-5.68c-21.456-35.104-51.728-64.584-87.544-85.272
		C336.292,12.664,295.628,1.184,254.5,0.168L247.844,0l-33.232,158.272c-10.104,3.784-19.456,9.12-27.616,15.888l-74.944-24.56
		c13.856-19.216,31.328-34.992,52.08-46.968c2.944-1.704,5.912-3.304,8.92-4.808l-7.16-14.312c-3.288,1.648-6.552,3.4-9.776,5.264
		c-24.2,13.968-44.288,32.704-59.888,55.648l-15.768-5.168c17.12-26.4,40.304-48.544,67.656-64.336
		c9.664-5.584,19.856-10.376,30.304-14.264l-5.576-15c-11.28,4.192-22.288,9.376-32.728,15.4
		c-30.76,17.76-56.616,42.976-75.312,73.064l-15.64-5.128C69.364,95.2,97.796,67.008,132.108,47.2
		c16.344-9.44,33.784-16.856,51.824-22.04l-4.408-15.376c-19.288,5.544-37.928,13.472-55.4,23.56
		c-37.728,21.776-68.8,53.04-90.488,90.552l-0.256-0.08l-3.184,5.848C10.524,165.776,0.124,206.736,0.124,248.12
		s10.4,82.344,30.072,118.456l3.184,5.848l153.616-50.344c8.168,6.76,17.512,12.104,27.616,15.88l16.224,77.256
		c-23.568-2.392-45.968-9.632-66.72-21.616c-2.952-1.696-5.824-3.48-8.624-5.328l-8.816,13.36c3.072,2.024,6.216,3.976,9.448,5.832
		c24.192,13.968,50.464,21.992,78.128,24.04l3.408,16.24c-31.416-1.632-62.184-10.632-89.536-26.432
		c-9.672-5.584-18.928-12.008-27.504-19.112l-10.2,12.328c9.264,7.664,19.264,14.616,29.712,20.648
		c30.76,17.76,65.528,27.552,100.92,28.688l3.376,16.096c-39.304-0.608-77.992-11.12-112.304-30.928
		c-16.352-9.44-31.504-20.832-45.008-33.856l-11.112,11.52c14.456,13.928,30.64,26.104,48.12,36.192
		c37.736,21.784,80.352,33.208,123.696,33.224l0.024,0.12l6.656-0.168c41.128-1.024,81.8-12.496,117.624-33.176
		s66.096-50.168,87.544-85.272l3.472-5.68L342.692,264.032c0.872-5.192,1.432-10.48,1.432-15.92c0-5.432-0.56-10.728-1.432-15.912
		l58.792-52.672c9.712,21.6,14.64,44.624,14.64,68.584c0,3.408-0.104,6.784-0.304,10.136l15.968,0.96
		c0.216-3.672,0.336-7.368,0.336-11.096c0-27.528-6.344-54.936-18.256-79.68l12.36-11.08c14.304,28.016,21.888,59.168,21.888,90.752
		c0,11.144-0.944,22.376-2.808,33.384l15.784,2.664c2.008-11.888,3.024-24.016,3.024-36.048c0-35.528-8.912-70.528-25.624-101.744
		l12.256-10.976c19.168,34.392,29.368,73.112,29.368,112.728c0,18.864-2.296,37.672-6.832,55.904l15.528,3.856
		c4.84-19.496,7.296-39.6,7.296-59.76C496.124,204.56,484.588,162.016,462.94,124.472z M328.124,248.12c0,44.112-35.888,80-80,80
		s-80-35.888-80-80s35.888-80,80-80S328.124,204.008,328.124,248.12z M16.124,248.12c0-36.488,8.632-72.616,25.024-104.92
		L174.3,186.832c-13.84,16.64-22.176,38-22.176,61.28s8.344,44.648,22.184,61.288l-133.16,43.64
		C24.756,320.736,16.124,284.6,16.124,248.12z M442.468,374.896c-19.8,30.36-46.768,55.904-78.344,74.136
		c-31.584,18.24-67.192,28.824-103.384,30.784l-28.8-137.176c5.272,0.904,10.656,1.472,16.184,1.472
		c41.232,0,76.376-26.184,89.944-62.752L442.468,374.896z M338.068,214.872c-13.568-36.576-48.704-62.752-89.944-62.752
		c-5.528,0-10.912,0.576-16.184,1.472l28.8-137.168c36.184,1.96,71.8,12.544,103.384,30.784
		c31.584,18.232,58.552,43.776,78.344,74.136L338.068,214.872z"/>
	<path style="fill:#333333;" d="M464.948,330.68l14.952,5.688c1.832-4.792,3.504-9.656,5.048-14.584l-15.28-4.76
		C468.236,321.64,466.644,326.192,464.948,330.68z"/>
	<path style="fill:#333333;" d="M438.108,310.592l15.2,5.008c1.68-5.112,3.192-10.368,4.496-15.616l-15.528-3.84
		C441.068,301,439.668,305.864,438.108,310.592z"/>
	<path style="fill:#333333;" d="M410.772,290.312l15.504,4c1.504-5.872,2.752-11.896,3.68-17.896l-15.816-2.448
		C413.284,279.448,412.164,284.944,410.772,290.312z"/>
	<path style="fill:#333333;" d="M211.212,19.064l-2.544-15.8c-5.064,0.816-10.12,1.792-15.16,2.92l3.512,15.608
		C201.732,20.736,206.46,19.832,211.212,19.064z"/>
	<path style="fill:#333333;" d="M207.236,52.344l-3.264-15.664c-5.248,1.096-10.552,2.408-15.768,3.912l4.44,15.376
		C197.468,54.576,202.372,53.352,207.236,52.344z"/>
	<path style="fill:#333333;" d="M187.492,91.416c5.16-2,10.488-3.768,15.832-5.256l-4.28-15.416
		c-5.856,1.624-11.696,3.56-17.336,5.752L187.492,91.416z"/>
	<path style="fill:#333333;" d="M68.212,394.616l-12.408,10.096c3.232,3.984,6.608,7.872,10.12,11.664l11.752-10.848
		C74.396,401.976,71.244,398.344,68.212,394.616z"/>
	<path style="fill:#333333;" d="M109.452,392.248c-3.584-3.456-7.096-7.096-10.44-10.832l-11.92,10.664
		c3.6,4.024,7.392,7.968,11.264,11.688L109.452,392.248z"/>
	<path style="fill:#333333;" d="M142.724,378.976c-4.312-3.464-8.504-7.192-12.48-11.088l-11.2,11.424
		c4.344,4.256,8.936,8.344,13.648,12.136L142.724,378.976z"/>
</g>
<g>
</g>
<g>
</g>
<g>
</g>
<g>
</g>
<g>
</g>
<g>
</g>
<g>
</g>
<g>
</g>
<g>
</g>
<g>
</g>
<g>
</g>
<g>
</g>
<g>
</g>
<g>
</g>
<g>
</g>
</svg>
