<svg width="100" height="100" xmlns="http://www.w3.org/2000/svg">

 <g>
  <title>background</title>
  <rect fill="none" id="canvas_background" height="402" width="582" y="-1" x="-1"/>
 </g>
 <g>
  <title>Layer 1</title>
  <g id="svg_1">
   <path id="svg_2" d="m34.9,18.1l-3.7,-3.7c-3.2,-3.2 -7.6,-6.2 -8.6,-5.2c-1,1 -3,5.6 -1.6,11.4l3.7,-3.7c0.5,-0.5 1.1,-0.6 1.4,-0.3l5.3,5.3c0.3,0.3 0.2,1 -0.3,1.4l-2.1,2.1c0,0 -1.9,1 -3,-0.1c-0.9,-0.9 -0.7,-1.8 -0.7,-2c0,-0.2 0.1,-0.6 -0.2,-0.6c-0.3,0.1 -0.4,0.2 -0.5,0.5c-0.1,0.2 -0.9,3.1 1,4.9c2.2,2.2 7.4,5.3 9.4,6.5l0,-16.5l-0.1,0z" fill="#c0c0c0"/>
   <path id="svg_3" d="m32.9,59.7l0,-1.8l-0.3,-0.3l-1.8,0c-0.7,0 -1.4,-0.6 -1.4,-1.4l0,-1.8l-0.3,-0.3l-1.8,0c-0.7,0 -1.4,-0.6 -1.4,-1.4l0,-1.7l-0.3,-0.3l-1.6,0c-0.7,0 -1.4,-0.6 -1.4,-1.4l0,-1.8l-0.3,-0.3l-1.8,0c-0.7,0 -1.4,-0.6 -1.4,-1.4l0,-1.1c-2.5,-1.1 -4.6,-1.6 -6.6,0.4c-2.6,2.6 -1.7,6 1,8.6l21.4,22.5l0,-15.2l-0.6,0c-0.8,0 -1.4,-0.6 -1.4,-1.3z" fill="#c0c0c0"/>
   <path id="svg_4" d="m50,5l0,0c-6.7,0 -12.2,5.5 -12.2,12.2l0,65.6c0,6.7 5.5,12.2 12.2,12.2l0,0c6.7,0 12.2,-5.5 12.2,-12.2l0,-65.6c0,-6.7 -5.5,-12.2 -12.2,-12.2zm5.7,16.6l-3.6,0l0,3.6l-4,0l0,-3.6l-3.6,0l0,-4l3.6,0l0,-3.6l4,0l0,3.6l3.6,0l0,4z" fill="#666666"/>
   <path id="svg_5" d="m81.9,39.9l-16.7,-22.4l0,22.8c1.2,1.7 2.4,3.4 3.4,4.7c9.5,13.2 22.1,13.7 22.1,13.7s-8,-13.5 -8.8,-18.8z" fill="#c0c0c0"/>
  </g>
 </g>
</svg>